<svg xmlns="http://www.w3.org/2000/svg" id="Layer_3" height="512" viewBox="0 0 64 64" width="512" style="fill: #FF1090;"><g><path d="m32 52.905c-1.654 0-3 1.346-3 3s1.346 3 3 3 3-1.346 3-3-1.346-3-3-3zm0 4c-.551 0-1-.449-1-1s.449-1 1-1 1 .449 1 1-.449 1-1 1z"></path><path d="m58 17.905h-9v-10c0-3.86-3.14-7-7-7h-20c-3.86 0-7 3.14-7 7v3h-13c-.552 0-1 .448-1 1v14c0 .552.448 1 1 1h13v10h-11c-1.654 0-3 1.346-3 3v12c0 1.654 1.346 3 3 3h11v1c0 3.86 3.14 7 7 7h20c3.86 0 7-3.14 7-7v-18h9c2.757 0 5-2.243 5-5v-10c0-2.757-2.243-5-5-5zm-36-15h20c2.414 0 4.434 1.721 4.899 4h-29.798c.465-2.279 2.485-4 4.899-4zm-2.851 10-7.149 5.72-7.149-5.719h14.298zm-16.149 1.081 8.375 6.7c.183.146.403.219.625.219s.442-.073.625-.219l8.375-6.7v10.92h-18zm14 12.919h5c.552 0 1-.448 1-1v-14c0-.552-.448-1-1-1h-5v-2h30v9.101c-2.279.465-4 2.484-4 4.899v10c0 2.414 1.721 4.434 4 4.899v11.101h-22v-1.382l3.447-1.724c.339-.169.553-.515.553-.894s-.214-.725-.553-.895l-3.447-1.723v-2.382c0-1.654-1.346-3-3-3h-5zm-14 25v-12c0-.551.449-1 1-1h18c.551 0 1 .449 1 1v3c0 .379.214.725.553.895l2.211 1.105-2.211 1.105c-.339.17-.553.516-.553.895v5c0 .551-.449 1-1 1h-18c-.551 0-1-.448-1-1zm39 9h-20c-2.757 0-5-2.243-5-5v-1h5c1.654 0 3-1.346 3-3v-1h22v5c0 2.757-2.243 5-5 5zm19-28c0 1.654-1.346 3-3 3h-10c-1.654 0-3-1.346-3-3v-10c0-1.654 1.346-3 3-3h10c1.654 0 3 1.346 3 3z"></path><path d="m53 23.905c-2.757 0-5 2.243-5 5s2.243 5 5 5 5-2.243 5-5-2.243-5-5-5zm0 8c-1.654 0-3-1.346-3-3s1.346-3 3-3 3 1.346 3 3-1.346 3-3 3z"></path><path d="m57 21.905h2v2h-2z"></path><path d="m5 40.905h16v2h-16z"></path><path d="m7 44.905h12v2h-12z"></path><path d="m5 48.905h16v2h-16z"></path></g></svg>