<svg xmlns="http://www.w3.org/2000/svg" id="Layer_5" height="512" viewBox="0 0 64 64" width="512"><g><path d="m45 43c3.86 0 7-3.14 7-7s-3.14-7-7-7-7 3.14-7 7 3.14 7 7 7zm0-12c2.757 0 5 2.243 5 5s-2.243 5-5 5-5-2.243-5-5 2.243-5 5-5z"></path><path d="m45 39c1.654 0 3-1.346 3-3s-1.346-3-3-3-3 1.346-3 3 1.346 3 3 3zm0-4c.551 0 1 .449 1 1s-.449 1-1 1-1-.449-1-1 .449-1 1-1z"></path><path d="m51.117 52.1.687-1.1h11.416l-1.309-6.542-6.026-5.021c.068-.746.115-1.494.115-2.247 0-.064-.006-.126-.007-.19h.007v-33c0-1.654-1.346-3-3-3h-49c-1.654 0-3 1.346-3 3v42c0 1.654 1.346 3 3 3h23.18l-.4 2h11.416l.687 1.1-.388.971c-1.006 2.514-.196 5.404 1.97 7.028l1.893 1.42 1.915-3.829c1.115 1.166 1.727 2.691 1.727 4.31v1h2.48l1.664-2.08c1.851-2.314 2.317-5.46 1.217-8.211zm-10.563-1.1-1.097-1.755c-.454-.726-.852-1.478-1.219-2.245h13.523c-.367.766-.765 1.519-1.219 2.245l-1.096 1.755zm-2.13-24h13.152c1.584 3.153 2.424 6.624 2.424 10.19 0 2.68-.472 5.32-1.383 7.81h-15.234c-.911-2.49-1.383-5.13-1.383-7.81 0-3.566.84-7.037 2.424-10.19zm1.133-2c.09-.141.17-.288.263-.428l2.902-4.354c.509-.762 1.361-1.218 2.278-1.218s1.769.456 2.277 1.219l2.902 4.354c.093.14.173.286.263.428h-10.885zm20.532 20.542.691 3.458h-7.788c1.233-2.269 2.093-4.708 2.568-7.232zm-56.089-42.542h49c.551 0 1 .449 1 1v9h-51v-9c0-.551.449-1 1-1zm23.58 44h-23.58c-.551 0-1-.449-1-1v-31h51v12.479c-.595-1.392-1.305-2.74-2.156-4.017l-2.902-4.354c-.881-1.319-2.354-2.108-3.942-2.108s-3.061.789-3.941 2.109l-2.902 4.354c-2.72 4.079-4.157 8.825-4.157 13.727 0 .753.047 1.501.115 2.246l-6.026 5.021zm2.331-1.458 4.529-3.774c.475 2.524 1.335 4.963 2.568 7.232h-7.788zm18.672 14.129-.708.884c-.29-1.652-1.078-3.173-2.289-4.384l-1.859-1.859-2.084 4.169c-1.426-1.086-1.957-3.001-1.29-4.668l.324-.813h8.646l.181.453c.833 2.083.48 4.465-.921 6.218z"></path><path d="m11 5h-6v6h6zm-2 4h-2v-2h2z"></path><path d="m19 5h-6v6h6zm-2 4h-2v-2h2z"></path><path d="m27 5h-6v6h6zm-2 4h-2v-2h2z"></path><path d="m29 17h-6v20h-2v-12h-6v12h-2v-8h-6v8h-2v2h26v-2h-2zm-4 2h2v18h-2zm-8 8h2v10h-2zm-8 4h2v6h-2z"></path><path d="m5 17h2v2h-2z"></path><path d="m9 17h10v2h-10z"></path><path d="m5 21h2v2h-2z"></path><path d="m9 21h10v2h-10z"></path></g></svg>