<svg xmlns="http://www.w3.org/2000/svg" viewBox="0 0 512 512" width="512" height="512"><g id="outline"><path d="M472,48H40A24.028,24.028,0,0,0,16,72V440a24.028,24.028,0,0,0,24,24H472a24.028,24.028,0,0,0,24-24V72A24.028,24.028,0,0,0,472,48ZM32,72a8.009,8.009,0,0,1,8-8H472a8.009,8.009,0,0,1,8,8V96H32ZM472,448H40a8.009,8.009,0,0,1-8-8V112H480V440A8.009,8.009,0,0,1,472,448Z"></path><path d="M456,208H379.947a136.029,136.029,0,0,0-247.911,0H56a8,8,0,0,0-8,8v96a8,8,0,0,0,8,8h76.053a136.016,136.016,0,0,0,247.891,0H456a8,8,0,0,0,8-8V216A8,8,0,0,0,456,208Zm-120,0H316.876q-1.087-8.026-2.546-16h37.7a120.1,120.1,0,0,1,10.124,16Zm-124.73,0q1.141-8.031,2.687-16H248v16ZM248,144.278V176H217.453q3.49-14.244,8.243-28.131A119.8,119.8,0,0,1,248,144.278Zm38.308,3.595q4.741,13.863,8.235,28.127H264V144.278A120.138,120.138,0,0,1,286.308,147.873Zm18.959,6.685A119.775,119.775,0,0,1,337.628,176H310.991Q308.473,165.19,305.267,154.558ZM264,192h34.043q1.537,7.968,2.688,16H264Zm-75.841-27a119.866,119.866,0,0,1,18.573-10.444q-3.207,10.623-5.725,21.441H174.4A121.364,121.364,0,0,1,188.159,165Zm-28.187,27h37.7q-1.464,7.969-2.548,16H149.848A119.609,119.609,0,0,1,159.972,192ZM64,224H328v80H64ZM278.188,381.943A120.283,120.283,0,0,1,264,383.722V352h25.129Q284.388,367.227,278.188,381.943ZM305.849,352h31.762a119.909,119.909,0,0,1-40.051,24.581Q302.162,364.452,305.849,352Zm-72.028,29.95q-6.195-14.7-10.949-29.95H248v31.722A120.493,120.493,0,0,1,233.821,381.95Zm-19.382-5.357A119.741,119.741,0,0,1,174.367,352h31.785Q209.832,364.446,214.439,376.593Zm3.9-40.593q-2.043-7.954-3.694-16H248v16ZM264,336V320h33.359q-1.644,8.044-3.694,16Zm-65.666-16q1.563,8.04,3.507,16H159.97a120.011,120.011,0,0,1-10.12-16ZM352.02,336H310.16q1.944-7.957,3.506-16h48.488A120.125,120.125,0,0,1,352.02,336ZM448,304H344V224H448Z"></path><path d="M376.411,282.53a7.932,7.932,0,0,0,.675,1.458A8,8,0,1,0,392,288h8a8,8,0,1,0,14.922-4,8.011,8.011,0,0,0,.506-1.031L428.457,250.4A3.8,3.8,0,0,1,432,248a8,8,0,0,0,0-16,19.721,19.721,0,0,0-18.4,12.457L412.184,248H376a8,8,0,0,0-7.589,10.53ZM405.784,264l-3.2,8H389.766l-2.666-8Z"></path><circle cx="256" cy="424" r="8"></circle><circle cx="224" cy="424" r="8"></circle><circle cx="288" cy="424" r="8"></circle></g></svg>