<svg xmlns="http://www.w3.org/2000/svg" id="Capa_1" height="512" viewBox="0 0 512.004 512.004" width="512"><g><g id="Page-1_37_"><g id="_x30_38---Like-Article"><path id="Shape_86_" d="m34.133 430.935h230.4v25.6c0 14.138 11.462 25.6 25.6 25.6h34.133c7.444-.026 14.503-3.31 19.319-8.986.119 0 .247 0 .367-.077 6.248 5.803 14.453 9.038 22.98 9.062h102.4c14.138 0 25.6-11.462 25.6-25.6-.025-4.41-1.202-8.737-3.413-12.553 11.624-7.186 15.408-22.323 8.533-34.133 6.4-3.985 10.694-10.612 11.716-18.082 1.023-7.47-1.332-15.007-6.426-20.565 6.818-7.475 8.57-18.274 4.465-27.521-4.106-9.247-13.292-15.19-23.409-15.145h-25.6v-264.533c0-18.851-15.282-34.133-34.133-34.133h-392.532c-18.851 0-34.133 15.282-34.133 34.133v332.8c0 18.851 15.282 34.133 34.133 34.133zm290.134 34.134h-34.133c-4.713 0-8.533-3.82-8.533-8.533v-76.8c0-4.713 3.821-8.533 8.533-8.533h34.133c4.713 0 8.533 3.82 8.533 8.533v76.8c0 4.712-3.82 8.533-8.533 8.533zm170.666-110.934c0 4.713-3.82 8.533-8.533 8.533h-25.6c-4.713 0-8.533 3.82-8.533 8.533s3.82 8.533 8.533 8.533h25.6c4.713 0 8.533 3.821 8.533 8.533 0 4.713-3.82 8.533-8.533 8.533h-25.6c-4.713 0-8.533 3.82-8.533 8.533s3.82 8.533 8.533 8.533h17.067c4.713 0 8.533 3.821 8.533 8.533 0 4.713-3.82 8.533-8.533 8.533h-17.067c-4.713 0-8.533 3.82-8.533 8.533s3.82 8.533 8.533 8.533h8.533c4.713 0 8.533 3.821 8.533 8.533s-3.821 8.533-8.533 8.533h-102.4c-9.426 0-17.067-7.641-17.067-17.067v-71.825c10.683-6.692 18.695-16.901 22.656-28.868 7.615-22.802 11.491-46.685 11.477-70.724-.003-1.167.783-2.188 1.911-2.483 2.893-.503 10.496-1.894 17.783 12.305 4.008 8.147 6.032 17.127 5.905 26.206v24.457c0 4.713 3.82 8.533 8.533 8.533h68.269c4.713.004 8.533 3.824 8.533 8.537zm-68.266-25.6v-15.923c.161-11.795-2.51-23.457-7.791-34.005-8.431-16.41-21.222-23.996-36.002-21.333-9.291 1.724-16.008 9.862-15.94 19.311.004 22.191-3.572 44.237-10.59 65.289-2.649 7.843-7.842 14.577-14.754 19.132-4.697-4.398-10.887-6.853-17.323-6.869h-34.133c-14.138 0-25.6 11.462-25.6 25.6v34.133h-230.4c-9.426 0-17.067-7.641-17.067-17.067v-281.6h426.667v213.333h-17.067zm-392.534-281.6h392.533c9.426 0 17.067 7.641 17.067 17.067v34.133h-426.666v-34.133c0-9.426 7.641-17.067 17.066-17.067z"></path><circle id="Oval_4_" clip-rule="evenodd" cx="42.667" cy="72.535" fill-rule="evenodd" r="8.533"></circle><circle id="Oval_1_" clip-rule="evenodd" cx="76.8" cy="72.535" fill-rule="evenodd" r="8.533"></circle><circle id="Oval_2_" clip-rule="evenodd" cx="110.933" cy="72.535" fill-rule="evenodd" r="8.533"></circle><path id="Shape_85_" d="m68.267 294.402h136.533c14.138 0 25.6-11.461 25.6-25.6v-102.4c0-14.138-11.462-25.6-25.6-25.6h-136.533c-14.138 0-25.6 11.462-25.6 25.6v102.4c0 14.138 11.461 25.6 25.6 25.6zm21-17.067 39.526-62.14 18.961 23.74-24.439 38.4zm115.533 0h-61.252l44.979-70.682 24.806 31.01v31.138c0 4.714-3.82 8.534-8.533 8.534zm-145.067-110.933c0-4.713 3.821-8.533 8.533-8.533h136.534c4.713 0 8.533 3.82 8.533 8.533v43.938l-18.935-23.671c-1.721-2.152-4.375-3.341-7.127-3.192s-5.262 1.618-6.74 3.943l-23.091 36.292-22.775-28.501c-1.719-2.153-4.373-3.344-7.124-3.196s-5.263 1.614-6.742 3.939l-51.755 81.382h-.777c-4.713 0-8.533-3.821-8.533-8.533v-102.401z"></path><g clip-rule="evenodd" fill-rule="evenodd"><circle id="Oval_3_" cx="85.333" cy="183.469" r="8.533"></circle><path id="Path_103_" d="m409.6 149.335h-145.067c-4.713 0-8.533 3.821-8.533 8.533 0 4.713 3.821 8.533 8.533 8.533h145.067c4.713 0 8.533-3.821 8.533-8.533s-3.82-8.533-8.533-8.533z"></path><path id="Path_102_" d="m409.6 183.469h-145.067c-4.713 0-8.533 3.821-8.533 8.533s3.821 8.533 8.533 8.533h145.067c4.713 0 8.533-3.82 8.533-8.533s-3.82-8.533-8.533-8.533z"></path><path id="Path_101_" d="m409.6 217.602h-145.067c-4.713 0-8.533 3.82-8.533 8.533s3.821 8.533 8.533 8.533h145.067c4.713 0 8.533-3.821 8.533-8.533s-3.82-8.533-8.533-8.533z"></path><path id="Path_100_" d="m341.333 251.735h-76.8c-4.713 0-8.533 3.821-8.533 8.533 0 4.713 3.821 8.533 8.533 8.533h76.8c4.713 0 8.533-3.82 8.533-8.533.001-4.712-3.82-8.533-8.533-8.533z"></path><path id="Path_99_" d="m247.467 328.535h-196.267c-4.713 0-8.533 3.821-8.533 8.533s3.821 8.533 8.533 8.533h196.267c4.713 0 8.533-3.82 8.533-8.533s-3.82-8.533-8.533-8.533z"></path><path id="Path_98_" d="m221.867 362.669h-170.667c-4.713 0-8.533 3.82-8.533 8.533s3.821 8.533 8.533 8.533h170.667c4.713 0 8.533-3.82 8.533-8.533s-3.821-8.533-8.533-8.533z"></path></g></g></g></g></svg>